<svg width="680" height="110" viewBox="0 0 680 110" xmlns="http://www.w3.org/2000/svg"><g fill="none" fill-rule="evenodd"><path d="M63.96 35.48L22.32 56.72l42 23.52v9.12L13.2 59.48v-5.76l50.76-26.76v8.52zm492.72 61.08l37.56-81.36 7.2 3.72-37.68 81.12-7.08-3.48zm57.36-61.08v-8.52l50.88 26.76v5.76L613.8 89.36v-9.12l41.88-23.52-41.64-21.24z" fill="#4990E2"/><path d="M86 20.04h9.36c.08.08.12.2.12.36 0 .24-.1.56-.3.96-.2.4-.34.92-.42 1.56v29.16h29.28V20.04h9.12c.08.08.12.2.12.36 0 .32-.12.66-.36 1.02s-.4.78-.48 1.26v72.24h-8.52V59.16H94.76V94.8H86V20.04zm64.44 26.4c4.88-5.12 11.4-7.68 19.56-7.68 6.72 0 12.02 1.7 15.9 5.1 3.88 3.4 5.82 9.06 5.82 16.98V94.8h-8.16v-6c-5.84 4.88-12.4 7.32-19.68 7.32-2.88 0-5.46-.44-7.74-1.32-2.28-.88-4.22-2.04-5.82-3.48-1.6-1.44-2.82-3.08-3.66-4.92-.84-1.84-1.26-3.68-1.26-5.52 0-5.52 2.38-9.88 7.14-13.08 4.76-3.2 11.62-4.96 20.58-5.28h10.32v-2.04c0-5.44-1.14-9.24-3.42-11.4-2.28-2.16-5.82-3.24-10.62-3.24-5.92 0-10.84 2.04-14.76 6.12l-4.2-5.52zm33.36 22.68h-2.04c-1.12 0-2.18-.02-3.18-.06-1-.04-1.98-.06-2.94-.06-4.4 0-8 .3-10.8.9-2.8.6-5 1.42-6.6 2.46-1.6 1.04-2.7 2.22-3.3 3.54-.6 1.32-.9 2.74-.9 4.26 0 2.56 1.12 4.76 3.36 6.6 2.24 1.84 5 2.76 8.28 2.76 2.4 0 4.56-.38 6.48-1.14 1.92-.76 3.6-1.68 5.04-2.76 1.44-1.08 2.6-2.2 3.48-3.36.88-1.16 1.52-2.18 1.92-3.06.8-1.6 1.2-3.76 1.2-6.48v-3.6zm28.44-29.16h21.96v47.88h12.84v6.96h-35.52v-6.96h14.04V46.92h-13.32v-6.96zm13.44-22.08c1.2-1.2 2.64-1.8 4.32-1.8 1.68 0 3.14.62 4.38 1.86 1.24 1.24 1.86 2.7 1.86 4.38 0 1.68-.62 3.12-1.86 4.32-1.24 1.2-2.7 1.8-4.38 1.8-1.68 0-3.12-.6-4.32-1.8-1.2-1.2-1.8-2.64-1.8-4.32 0-1.76.6-3.24 1.8-4.44zm85.68 29.4l-5.04 7.56c-.4-.08-.6-.4-.6-.96 0-.56-.08-.96-.24-1.2-1.44-1.84-3.48-3.54-6.12-5.1-2.64-1.56-5.64-2.34-9-2.34-1.52 0-2.98.18-4.38.54-1.4.36-2.64.86-3.72 1.5s-1.94 1.46-2.58 2.46c-.64 1-.96 2.14-.96 3.42 0 .96.24 1.82.72 2.58s1.24 1.5 2.28 2.22c1.04.72 2.5 1.44 4.38 2.16 1.88.72 4.34 1.52 7.38 2.4 6.88 1.84 11.74 4.02 14.58 6.54 2.84 2.52 4.26 5.62 4.26 9.3 0 2.4-.52 4.68-1.56 6.84s-2.56 4.04-4.56 5.64c-2 1.6-4.4 2.86-7.2 3.78-2.8.92-5.96 1.38-9.48 1.38-9.2 0-16.92-2.88-23.16-8.64l4.92-8.64c.24.24.4.62.48 1.14.08.52.36 1.14.84 1.86.48.72 1.36 1.54 2.64 2.46 1.28.92 3.24 1.94 5.88 3.06 1.2.56 2.56.96 4.08 1.2s3.04.36 4.56.36c1.6 0 3.22-.2 4.86-.6 1.64-.4 3.12-.98 4.44-1.74 1.32-.76 2.38-1.68 3.18-2.76.8-1.08 1.2-2.3 1.2-3.66 0-2.08-.96-3.84-2.88-5.28-1.92-1.44-5.44-2.92-10.56-4.44-3.52-1.04-5.84-1.76-6.96-2.16-2.88-1.12-4.96-2.1-6.24-2.94-1.28-.84-2.44-1.84-3.48-3a14.515 14.515 0 0 1-2.52-3.96c-.64-1.48-.96-3.1-.96-4.86 0-1.92.52-3.76 1.56-5.52 1.04-1.76 2.5-3.32 4.38-4.68 1.88-1.36 4.12-2.46 6.72-3.3 2.6-.84 5.42-1.26 8.46-1.26 8.4 0 15.2 2.88 20.4 8.64zm16.56 47.52V15h9.96c0 .08.02.12.06.12.04 0 .06.04.06.12 0 .24-.18.58-.54 1.02-.36.44-.62.98-.78 1.62v31.8c2.16-3.36 4.86-6.04 8.1-8.04 3.24-2 6.54-3 9.9-3 2.48 0 4.74.42 6.78 1.26 2.04.84 3.82 2.18 5.34 4.02 1.52 1.84 2.68 4.2 3.48 7.08.8 2.88 1.2 6.4 1.2 10.56V94.8h-8.52v-33c0-5.76-.98-9.8-2.94-12.12-1.96-2.32-4.34-3.48-7.14-3.48-1.84 0-3.68.4-5.52 1.2-1.84.8-3.62 1.92-5.34 3.36-1.72 1.44-3.04 3.2-3.96 5.28-.92 2.08-1.38 4.48-1.38 7.2V94.8h-8.76zm62.52-48.36c4.88-5.12 11.4-7.68 19.56-7.68 6.72 0 12.02 1.7 15.9 5.1 3.88 3.4 5.82 9.06 5.82 16.98V94.8h-8.16v-6c-5.84 4.88-12.4 7.32-19.68 7.32-2.88 0-5.46-.44-7.74-1.32-2.28-.88-4.22-2.04-5.82-3.48-1.6-1.44-2.82-3.08-3.66-4.92-.84-1.84-1.26-3.68-1.26-5.52 0-5.52 2.38-9.88 7.14-13.08 4.76-3.2 11.62-4.96 20.58-5.28h10.32v-2.04c0-5.44-1.14-9.24-3.42-11.4-2.28-2.16-5.82-3.24-10.62-3.24-5.92 0-10.84 2.04-14.76 6.12l-4.2-5.52zm33.36 22.68h-2.04c-1.12 0-2.18-.02-3.18-.06-1-.04-1.98-.06-2.94-.06-4.4 0-8 .3-10.8.9-2.8.6-5 1.42-6.6 2.46-1.6 1.04-2.7 2.22-3.3 3.54-.6 1.32-.9 2.74-.9 4.26 0 2.56 1.12 4.76 3.36 6.6 2.24 1.84 5 2.76 8.28 2.76 2.4 0 4.56-.38 6.48-1.14 1.92-.76 3.6-1.68 5.04-2.76 1.44-1.08 2.6-2.2 3.48-3.36.88-1.16 1.52-2.18 1.92-3.06.8-1.6 1.2-3.76 1.2-6.48v-3.6zm23.88 25.68V39.96h8.88v9.72c2.08-3.36 4.74-6.04 7.98-8.04 3.24-2 6.54-3 9.9-3 2.4 0 4.64.42 6.72 1.26 2.08.84 3.88 2.18 5.4 4.02 1.52 1.84 2.7 4.2 3.54 7.08.84 2.88 1.26 6.4 1.26 10.56V94.8h-8.52v-33c0-5.76-.98-9.8-2.94-12.12-1.96-2.32-4.34-3.48-7.14-3.48-1.84 0-3.72.4-5.64 1.2-1.92.8-3.66 1.94-5.22 3.42-1.56 1.48-2.84 3.26-3.84 5.34s-1.5 4.44-1.5 7.08V94.8h-8.88z" fill="#EF4E4E"/></g></svg>
